PathFileType	4	(x/y/z)	S01_P20_T04
DataRate	CameraRate	NumFrames	NumMarkers	Units	OrigDataRate	OrigDataStartFrame	OrigNumFrames
240	240	4	51	mm	240	102	406
Frame#	Time	Sternum			R.Acromium			L.Acromium			Top.Head			R.ASIS			L.ASIS			R.PSIS			L.PSIS			R.Great.Tro			L.Great.Tro			R.Iliac.Crest			L.Iliac.Crest			V.Sacral			R.Thigh.Upper.Post			R.Thigh.Lower.Ant			R.Thigh.Lower.Post			R.Thigh.Upper.Ant			R.Knee.Lat			R.Knee.Med			R.Shank.Upper.Post			R.Shank.Lower.Ant			R.Shank.Lower.Post			R.Shank.Upper.Ant			R.Ankle.Lat			R.Ankle.Med			R.Heel.Upper			R.Heel.Med			R.Heel.Lat			R.Toe.Lat			R.Toe.Med			R.Toe.Tip			L.Thigh.Upper.Post			L.Thigh.Lower.Ant			L.Thigh.Lower.Post			L.Thigh.Upper.Ant			L.Knee.Lat			L.Knee.Med			L.Shank.Upper.Post			L.Shank.Lower.Ant			L.Shank.Lower.Post			L.Shank.Upper.Ant			L.Ankle.Lat			L.Ankle.Med			L.Heel.Upper			L.Heel.Med			L.Heel.Lat			L.Toe.Lat			L.Toe.Med			L.Toe.Tip			Cervical.Spine			Back			
		X1	Y1	Z1	X2	Y2	Z2	X3	Y3	Z3	X4	Y4	Z4	X5	Y5	Z5	X6	Y6	Z6	X7	Y7	Z7	X8	Y8	Z8	X9	Y9	Z9	X10	Y10	Z10	X11	Y11	Z11	X12	Y12	Z12	X13	Y13	Z13	X14	Y14	Z14	X15	Y15	Z15	X16	Y16	Z16	X17	Y17	Z17	X18	Y18	Z18	X19	Y19	Z19	X20	Y20	Z20	X21	Y21	Z21	X22	Y22	Z22	X23	Y23	Z23	X24	Y24	Z24	X25	Y25	Z25	X26	Y26	Z26	X27	Y27	Z27	X28	Y28	Z28	X29	Y29	Z29	X30	Y30	Z30	X31	Y31	Z31	X32	Y32	Z32	X33	Y33	Z33	X34	Y34	Z34	X35	Y35	Z35	X36	Y36	Z36	X37	Y37	Z37	X38	Y38	Z38	X39	Y39	Z39	X40	Y40	Z40	X41	Y41	Z41	X42	Y42	Z42	X43	Y43	Z43	X44	Y44	Z44	X45	Y45	Z45	X46	Y46	Z46	X47	Y47	Z47	X48	Y48	Z48	X49	Y49	Z49	X50	Y50	Z50	X51	Y51	Z51	

102	0.42083	-871.19	1295.5	263	-998.04	1549.1	428.33	-994.17	1559.6	99.104	-1017.5	1869.9	262.2	-933.1	1047.7	418.49	-917.33	1035.2	153.46	NaN	NaN	NaN	NaN	NaN	NaN	-1010.3	1002.9	502.84	-1028.5	986.57	75.434	-1023.7	1149.7	476.9	-1019.9	1119	75.115	-1178.7	1051.6	265.44	-905.91	708.22	495.65	-813.09	666.66	474.76	-870.53	627.79	475.95	-846.83	750.07	492.12	-831.68	572.5	471.79	-810.43	577.83	329.39	-896.32	417.97	481.33	-837.3	332.86	443.19	-904.24	348.95	466.36	-833.63	403.39	463.79	-915.01	149.2	423.78	-872.38	156.39	337.17	-974.84	121.48	354.94	-955.99	92.695	327.15	-971.89	89.269	389.86	-797.56	67.422	474.18	-747.05	76.818	359.62	-693.78	96.264	423.13	-1097	712.99	103.12	-1021.4	631.87	102.7	-1099.6	623.39	120.71	-1028.3	725.28	83.79	-1061.2	529.29	118.03	-1034.1	532.28	256.53	-1133.4	395.93	102.93	-1081.5	300.46	128.1	-1142.5	317.78	108.17	-1072.2	376.35	118.25	-1181	104.91	152.5	-1152.6	120.29	247.36	-1249.5	73.901	199.38	-1240.3	49.599	232.88	-1241.8	48.299	170.64	-1031.6	37.123	135.16	-1007.9	52.596	256.58	-945.34	61.836	205.4	-1084.7	1609.2	263.63	-1178.3	1299	278.44
103	0.425	-865.57	1294.2	263.11	-992.25	1548.1	428.47	-988.43	1558.6	99.209	-1011.6	1869	262.32	-927.55	1046.6	418.71	-912.11	1034	153.57	NaN	NaN	NaN	NaN	NaN	NaN	-1004.9	1001.9	503.11	-1023.5	985.75	75.623	-1018.1	1148.7	477.15	-1014.7	1117.8	75.197	-1173.3	1051	265.79	-900.8	707.05	495.22	-807.97	665.62	474.15	-865.37	626.69	475.19	-841.73	748.95	491.79	-825.93	571.84	470.98	-805.11	577.16	328.49	-886.83	415.96	481.18	-825.82	332.23	443.17	-893.05	346.77	466.52	-823.89	402.88	463.48	-898.59	146.37	424.49	-856.49	154.56	337.77	-957.84	116.91	355.82	-938.27	88.524	328.11	-953.94	84.9	390.84	-778.88	67.799	474.81	-728.93	78.231	360.23	-676.07	99.195	423.54	-1093.5	712.87	103.26	-1018.4	631.27	102.93	-1096.7	623.28	120.87	-1024.7	724.73	84.024	-1059	528.91	118.13	-1031.9	531.72	256.74	-1131.9	395.87	103.08	-1080.4	300.17	128.19	-1141.4	317.77	108.3	-1070.7	376.01	118.33	-1180.8	105.03	152.73	-1152.4	120.2	247.61	-1249.4	74.018	199.56	-1240.3	49.636	233.01	-1241.7	48.486	170.76	-1031.6	37.068	135.18	-1007.9	52.243	256.65	-945.25	61.405	205.51	-1079	1608.4	263.72	-1172.7	1298.1	278.71
104	0.42917	-859.93	1292.9	263.22	-986.43	1547.1	428.63	-982.69	1557.5	99.33	-1005.7	1868.1	262.45	-921.98	1045.5	418.96	-906.86	1032.8	153.71	-1154.6	1086.1	318.96	NaN	NaN	NaN	-999.38	1000.9	503.38	-1018.4	984.91	75.816	-1012.4	1147.7	477.4	-1009.4	1116.6	75.296	-1167.9	1050.3	266.15	-895.78	705.77	494.8	-802.93	664.46	473.55	-860.31	625.49	474.44	-836.71	747.72	491.45	-820.24	571.12	470.16	-799.88	576.38	327.56	-877.37	413.98	481.05	-814.43	331.66	443.15	-881.92	344.65	466.7	-814.22	402.4	463.16	-882.24	143.74	425.22	-840.68	152.89	338.37	-940.9	112.56	356.75	-920.63	84.588	329.11	-936.06	80.776	391.85	-760.37	68.398	475.42	-711.03	79.829	360.81	-658.58	102.3	423.9	-1089.9	712.72	103.4	-1015.4	630.66	103.16	-1093.7	623.14	121.02	-1021.1	724.16	84.259	-1056.7	528.51	118.24	-1029.6	531.14	256.96	-1130.4	395.82	103.22	-1079.3	299.88	128.26	-1140.2	317.77	108.43	-1069.3	375.67	118.4	-1180.6	105.17	152.96	-1152.2	120.12	247.84	-1249.3	74.15	199.73	-1240.2	49.689	233.13	-1241.6	48.687	170.88	-1031.5	37.013	135.2	-1007.8	51.897	256.71	-945.16	60.969	205.61	-1073.2	1607.5	263.83	-1167.1	1297.2	279.01
105	0.43333	-854.27	1291.5	263.35	-980.59	1546	428.79	-976.95	1556.3	99.467	-999.71	1867.1	262.6	-916.4	1044.3	419.22	-901.58	1031.5	153.87	-1149.6	1085.3	319.31	NaN	NaN	NaN	-993.89	999.83	503.66	-1013.4	984.06	76.013	-1006.7	1146.7	477.65	-1004.1	1115.3	75.415	-1162.4	1049.6	266.52	-890.83	704.4	494.38	-797.97	663.2	472.96	-855.33	624.2	473.69	-831.75	746.39	491.12	-814.6	570.34	469.34	-794.75	575.5	326.61	-867.95	412.05	480.92	-803.13	331.16	443.12	-870.84	342.61	466.89	-804.63	401.95	462.84	-866	141.3	425.97	-824.96	151.37	338.97	-924.04	108.44	357.7	-903.11	80.891	330.12	-918.28	76.9	392.9	-742.04	69.21	476.01	-693.38	81.604	361.35	-641.35	105.57	424.18	-1086.3	712.54	103.53	-1012.2	630.02	103.39	-1090.6	622.97	121.18	-1017.3	723.57	84.496	-1054.3	528.1	118.34	-1027.3	530.55	257.17	-1128.8	395.78	103.37	-1078.2	299.59	128.33	-1139	317.78	108.56	-1067.7	375.33	118.47	-1180.4	105.32	153.19	-1151.9	120.06	248.07	-1249.1	74.299	199.91	-1240.1	49.761	233.25	-1241.5	48.902	171	-1031.4	36.958	135.22	-1007.8	51.559	256.77	-945.07	60.529	205.72	-1067.5	1606.6	263.96	-1161.5	1296.3	279.33
